<?xml version="1.0" encoding="UTF-8" standalone="no"?>
<svg
   width="32"
   height="32"
   viewBox="0 0 24 24"
   version="1.1"
   id="svg196"
   xmlns:xlink="http://www.w3.org/1999/xlink"
   xmlns="http://www.w3.org/2000/svg"
   xmlns:svg="http://www.w3.org/2000/svg">
  <defs
     id="defs200">
    <linearGradient
       id="linearGradient14768">
      <stop
         style="stop-color:#4b8cbf;stop-opacity:1;"
         offset="0"
         id="stop14764" />
      <stop
         style="stop-color:#306998;stop-opacity:1;"
         offset="1"
         id="stop14766" />
    </linearGradient>
    <linearGradient
       id="linearGradient12582">
      <stop
         style="stop-color:#ffe873;stop-opacity:1;"
         offset="0"
         id="stop12578" />
      <stop
         style="stop-color:#ffd43b;stop-opacity:1;"
         offset="1"
         id="stop12580" />
    </linearGradient>
    <linearGradient
       xlink:href="#linearGradient12582"
       id="linearGradient12584"
       x1="6.7294698"
       y1="16.2885"
       x2="20.849789"
       y2="19.191319"
       gradientUnits="userSpaceOnUse"
       gradientTransform="matrix(1.207727,0,0,1.207727,-2.4927518,-2.3912259)" />
    <linearGradient
       xlink:href="#linearGradient14768"
       id="linearGradient14770"
       x1="7.0566974"
       y1="3.3630109"
       x2="15.01611"
       y2="11.856445"
       gradientUnits="userSpaceOnUse"
       gradientTransform="matrix(1.207727,0,0,1.207727,-2.4927518,-2.3912259)" />
  </defs>
  <path
     id="path194"
     style="fill:url(#linearGradient14770);fill-opacity:1;stroke-width:1.20773"
     d="m 10.848084,0.88561372 c -3.3756041,0 -4.8868345,0.66256078 -4.8868345,2.33344198 L 5.9584296,5.871143 H 12 V 6.6240482 H 8.3764677 V 10.89333 l -6.7028298,8.152243 c -0.6441197,0.785021 -0.7504059,1.635721 -0.3172353,2.551982 0.4323654,0.915455 1.1616529,1.373277 2.1882187,1.373277 h 0.2453286 v -2.82833 c 0,-1.53272 0.5806824,-2.70208 1.5100402,-3.428961 0.9293577,-0.72688 2.1547969,-1.019383 3.4374209,-1.019383 h 2.718354 c 1.113508,0 1.921958,-0.126934 2.489945,-0.342614 0.567987,-0.215679 0.898048,-0.500805 1.137817,-0.893899 0.479543,-0.786188 0.537186,-2.150856 0.537186,-4.014084 h 0.0028 V 5.871143 l 0.01974,-2.6520873 C 15.671372,1.6838525 13.99982,0.88561372 10.848084,0.88561372 Z M 8.4751631,2.3124677 A 1.0869544,1.0869544 0 0 1 9.5622229,3.3995274 1.0869544,1.0869544 0 0 1 8.4751631,4.486587 1.0869544,1.0869544 0 0 1 7.3881034,3.3995274 1.0869544,1.0869544 0 0 1 8.4751631,2.3124677 Z" />
  <path
     id="path194-7"
     style="fill:url(#linearGradient12584);fill-opacity:1;stroke-width:1.20773"
     d="m 16.624586,12.110105 c -0.04214,1.124087 -0.183103,2.087328 -0.6669,2.880496 -0.354157,0.580628 -0.907443,1.038408 -1.648213,1.319699 -0.740769,0.28129 -1.665052,0.406061 -2.853708,0.406061 H 8.737411 c -1.1241248,0 -2.1161734,0.266514 -2.8029503,0.803663 -0.6867769,0.537151 -1.122308,1.335232 -1.122308,2.622478 v 2.82833 H 20.455379 c 1.026566,0 1.755852,-0.457823 2.188218,-1.373277 0.433171,-0.916261 0.326884,-1.766962 -0.317235,-2.551982 z m 2.746553,7.161058 a 1.0869544,1.0869544 0 0 1 1.08706,1.087059 1.0869544,1.0869544 0 0 1 -1.08706,1.08565 1.0869544,1.0869544 0 0 1 -1.087059,-1.08565 1.0869544,1.0869544 0 0 1 1.087059,-1.087059 z" />
</svg>
